{
	"patcher" : 	{
		"fileversion" : 1,
		"rect" : [ 89.0, 111.0, 409.0, 576.0 ],
		"bglocked" : 0,
		"defrect" : [ 89.0, 111.0, 409.0, 576.0 ],
		"openrect" : [ 0.0, 0.0, 0.0, 0.0 ],
		"openinpresentation" : 0,
		"default_fontsize" : 12.0,
		"default_fontface" : 0,
		"default_fontname" : "Arial",
		"gridonopen" : 0,
		"gridsize" : [ 15.0, 15.0 ],
		"gridsnaponopen" : 0,
		"toolbarvisible" : 1,
		"boxanimatetime" : 200,
		"imprint" : 0,
		"enablehscroll" : 1,
		"enablevscroll" : 1,
		"devicewidth" : 0.0,
		"boxes" : [ 			{
				"box" : 				{
					"maxclass" : "comment",
					"text" : "parameters of this model are explained here :\nN. d'Alessandro, O. Babacan, B. Bozkurt, T. Dubuisson, A. Holzapfel, L. Kessous, A. Moinet and M. Vlieghe, “RAMCESS 2.x Framework : Expressive Voice Analysis for Realtime and Accurate Synthesis of Singing,” Journal on Multimodal User Interfaces, volume 2, n°2, pp. 133-144, September 2008.\n\nhttp://www.nicolasdalessandro.net/papers/jmui08.pdf",
					"linecount" : 8,
					"patching_rect" : [ 22.0, 443.0, 365.0, 117.0 ],
					"id" : "obj-24",
					"fontname" : "Arial",
					"numinlets" : 1,
					"fontsize" : 12.0,
					"numoutlets" : 0
				}

			}
, 			{
				"box" : 				{
					"maxclass" : "comment",
					"text" : "no need to really hear that buzzy thing !!!",
					"linecount" : 2,
					"patching_rect" : [ 243.0, 368.0, 128.0, 34.0 ],
					"id" : "obj-23",
					"fontname" : "Arial",
					"numinlets" : 1,
					"fontsize" : 12.0,
					"numoutlets" : 0
				}

			}
, 			{
				"box" : 				{
					"maxclass" : "message",
					"text" : "stop",
					"patching_rect" : [ 222.0, 346.0, 33.0, 18.0 ],
					"outlettype" : [ "" ],
					"id" : "obj-22",
					"fontname" : "Arial",
					"numinlets" : 2,
					"fontsize" : 12.0,
					"numoutlets" : 1
				}

			}
, 			{
				"box" : 				{
					"maxclass" : "message",
					"text" : "startwindow",
					"patching_rect" : [ 208.0, 323.0, 74.0, 18.0 ],
					"outlettype" : [ "" ],
					"id" : "obj-9",
					"fontname" : "Arial",
					"numinlets" : 2,
					"fontsize" : 12.0,
					"numoutlets" : 1
				}

			}
, 			{
				"box" : 				{
					"maxclass" : "newobj",
					"text" : "dac~",
					"patching_rect" : [ 208.0, 375.0, 37.0, 20.0 ],
					"id" : "obj-2",
					"fontname" : "Arial",
					"numinlets" : 2,
					"fontsize" : 12.0,
					"numoutlets" : 0
				}

			}
, 			{
				"box" : 				{
					"maxclass" : "newobj",
					"text" : "loadmess 70.275002",
					"patching_rect" : [ 229.0, 206.0, 122.0, 20.0 ],
					"outlettype" : [ "" ],
					"hidden" : 1,
					"id" : "obj-43",
					"fontname" : "Arial",
					"numinlets" : 1,
					"fontsize" : 12.0,
					"numoutlets" : 1
				}

			}
, 			{
				"box" : 				{
					"maxclass" : "scope~",
					"patching_rect" : [ 31.0, 316.0, 166.0, 111.0 ],
					"calccount" : 32,
					"id" : "obj-41",
					"numinlets" : 2,
					"numoutlets" : 0
				}

			}
, 			{
				"box" : 				{
					"maxclass" : "comment",
					"text" : "Tl",
					"patching_rect" : [ 206.0, 239.0, 20.0, 20.0 ],
					"id" : "obj-37",
					"fontname" : "Arial",
					"numinlets" : 1,
					"fontsize" : 12.0,
					"numoutlets" : 0
				}

			}
, 			{
				"box" : 				{
					"maxclass" : "comment",
					"text" : "Am",
					"patching_rect" : [ 153.0, 239.0, 33.0, 20.0 ],
					"id" : "obj-38",
					"fontname" : "Arial",
					"numinlets" : 1,
					"fontsize" : 12.0,
					"numoutlets" : 0
				}

			}
, 			{
				"box" : 				{
					"maxclass" : "comment",
					"text" : "Oq",
					"patching_rect" : [ 101.0, 239.0, 25.0, 20.0 ],
					"id" : "obj-39",
					"fontname" : "Arial",
					"numinlets" : 1,
					"fontsize" : 12.0,
					"numoutlets" : 0
				}

			}
, 			{
				"box" : 				{
					"maxclass" : "comment",
					"text" : "Fo",
					"patching_rect" : [ 49.0, 239.0, 31.0, 20.0 ],
					"id" : "obj-40",
					"fontname" : "Arial",
					"numinlets" : 1,
					"fontsize" : 12.0,
					"numoutlets" : 0
				}

			}
, 			{
				"box" : 				{
					"maxclass" : "flonum",
					"patching_rect" : [ 204.0, 258.0, 50.0, 20.0 ],
					"outlettype" : [ "float", "bang" ],
					"id" : "obj-33",
					"fontname" : "Arial",
					"numinlets" : 1,
					"fontsize" : 12.0,
					"numoutlets" : 2
				}

			}
, 			{
				"box" : 				{
					"maxclass" : "flonum",
					"patching_rect" : [ 152.0, 258.0, 50.0, 20.0 ],
					"outlettype" : [ "float", "bang" ],
					"id" : "obj-34",
					"fontname" : "Arial",
					"numinlets" : 1,
					"fontsize" : 12.0,
					"numoutlets" : 2
				}

			}
, 			{
				"box" : 				{
					"maxclass" : "flonum",
					"patching_rect" : [ 100.0, 258.0, 50.0, 20.0 ],
					"outlettype" : [ "float", "bang" ],
					"id" : "obj-35",
					"fontname" : "Arial",
					"numinlets" : 1,
					"fontsize" : 12.0,
					"numoutlets" : 2
				}

			}
, 			{
				"box" : 				{
					"maxclass" : "flonum",
					"patching_rect" : [ 48.0, 258.0, 50.0, 20.0 ],
					"outlettype" : [ "float", "bang" ],
					"id" : "obj-36",
					"fontname" : "Arial",
					"numinlets" : 1,
					"fontsize" : 12.0,
					"numoutlets" : 2
				}

			}
, 			{
				"box" : 				{
					"maxclass" : "comment",
					"text" : "random deviations",
					"linecount" : 2,
					"patching_rect" : [ 295.0, 158.0, 63.0, 34.0 ],
					"id" : "obj-32",
					"fontname" : "Arial",
					"numinlets" : 1,
					"fontsize" : 12.0,
					"numoutlets" : 0
				}

			}
, 			{
				"box" : 				{
					"maxclass" : "comment",
					"text" : "dAm",
					"patching_rect" : [ 327.0, 84.0, 35.0, 20.0 ],
					"id" : "obj-31",
					"fontname" : "Arial",
					"numinlets" : 1,
					"fontsize" : 12.0,
					"numoutlets" : 0
				}

			}
, 			{
				"box" : 				{
					"maxclass" : "comment",
					"text" : "dOq",
					"patching_rect" : [ 275.0, 84.0, 33.0, 20.0 ],
					"id" : "obj-30",
					"fontname" : "Arial",
					"numinlets" : 1,
					"fontsize" : 12.0,
					"numoutlets" : 0
				}

			}
, 			{
				"box" : 				{
					"maxclass" : "comment",
					"text" : "dE",
					"patching_rect" : [ 224.0, 84.0, 25.0, 20.0 ],
					"id" : "obj-29",
					"fontname" : "Arial",
					"numinlets" : 1,
					"fontsize" : 12.0,
					"numoutlets" : 0
				}

			}
, 			{
				"box" : 				{
					"maxclass" : "comment",
					"text" : "dFo",
					"patching_rect" : [ 173.0, 84.0, 31.0, 20.0 ],
					"id" : "obj-28",
					"fontname" : "Arial",
					"numinlets" : 1,
					"fontsize" : 12.0,
					"numoutlets" : 0
				}

			}
, 			{
				"box" : 				{
					"maxclass" : "comment",
					"text" : "compensate spectral tilt filter",
					"linecount" : 2,
					"patching_rect" : [ 107.0, 190.0, 92.0, 34.0 ],
					"id" : "obj-27",
					"fontname" : "Arial",
					"numinlets" : 1,
					"fontsize" : 12.0,
					"numoutlets" : 0
				}

			}
, 			{
				"box" : 				{
					"maxclass" : "comment",
					"text" : "compute glottal pulse derivative",
					"linecount" : 2,
					"patching_rect" : [ 100.0, 136.0, 93.0, 34.0 ],
					"id" : "obj-26",
					"fontname" : "Arial",
					"numinlets" : 1,
					"fontsize" : 12.0,
					"numoutlets" : 0
				}

			}
, 			{
				"box" : 				{
					"maxclass" : "comment",
					"text" : "clearing buffer",
					"linecount" : 2,
					"patching_rect" : [ 68.0, 84.0, 54.0, 34.0 ],
					"id" : "obj-25",
					"fontname" : "Arial",
					"numinlets" : 1,
					"fontsize" : 12.0,
					"numoutlets" : 0
				}

			}
, 			{
				"box" : 				{
					"maxclass" : "newobj",
					"text" : "prepend prand",
					"patching_rect" : [ 207.0, 165.0, 89.0, 20.0 ],
					"outlettype" : [ "" ],
					"id" : "obj-21",
					"fontname" : "Arial",
					"numinlets" : 1,
					"fontsize" : 12.0,
					"numoutlets" : 1
				}

			}
, 			{
				"box" : 				{
					"maxclass" : "flonum",
					"patching_rect" : [ 326.0, 103.0, 50.0, 20.0 ],
					"outlettype" : [ "float", "bang" ],
					"id" : "obj-20",
					"fontname" : "Arial",
					"numinlets" : 1,
					"fontsize" : 12.0,
					"numoutlets" : 2
				}

			}
, 			{
				"box" : 				{
					"maxclass" : "flonum",
					"patching_rect" : [ 275.0, 103.0, 50.0, 20.0 ],
					"outlettype" : [ "float", "bang" ],
					"id" : "obj-19",
					"fontname" : "Arial",
					"numinlets" : 1,
					"fontsize" : 12.0,
					"numoutlets" : 2
				}

			}
, 			{
				"box" : 				{
					"maxclass" : "flonum",
					"patching_rect" : [ 224.0, 103.0, 50.0, 20.0 ],
					"outlettype" : [ "float", "bang" ],
					"id" : "obj-18",
					"fontname" : "Arial",
					"numinlets" : 1,
					"fontsize" : 12.0,
					"numoutlets" : 2
				}

			}
, 			{
				"box" : 				{
					"maxclass" : "flonum",
					"patching_rect" : [ 173.0, 103.0, 50.0, 20.0 ],
					"outlettype" : [ "float", "bang" ],
					"id" : "obj-17",
					"fontname" : "Arial",
					"numinlets" : 1,
					"fontsize" : 12.0,
					"numoutlets" : 2
				}

			}
, 			{
				"box" : 				{
					"maxclass" : "newobj",
					"text" : "pak f f f f",
					"patching_rect" : [ 207.0, 132.0, 100.5, 20.0 ],
					"outlettype" : [ "" ],
					"id" : "obj-15",
					"fontname" : "Arial",
					"numinlets" : 4,
					"fontsize" : 12.0,
					"numoutlets" : 1
				}

			}
, 			{
				"box" : 				{
					"maxclass" : "toggle",
					"patching_rect" : [ 47.0, 175.0, 20.0, 20.0 ],
					"outlettype" : [ "int" ],
					"id" : "obj-13",
					"numinlets" : 1,
					"numoutlets" : 1
				}

			}
, 			{
				"box" : 				{
					"maxclass" : "message",
					"text" : "tcomp $1",
					"patching_rect" : [ 47.0, 199.0, 60.0, 18.0 ],
					"outlettype" : [ "" ],
					"id" : "obj-14",
					"fontname" : "Arial",
					"numinlets" : 2,
					"fontsize" : 12.0,
					"numoutlets" : 1
				}

			}
, 			{
				"box" : 				{
					"maxclass" : "toggle",
					"patching_rect" : [ 47.0, 121.0, 20.0, 20.0 ],
					"outlettype" : [ "int" ],
					"id" : "obj-12",
					"numinlets" : 1,
					"numoutlets" : 1
				}

			}
, 			{
				"box" : 				{
					"maxclass" : "message",
					"text" : "deriv $1",
					"patching_rect" : [ 47.0, 145.0, 53.0, 18.0 ],
					"outlettype" : [ "" ],
					"id" : "obj-10",
					"fontname" : "Arial",
					"numinlets" : 2,
					"fontsize" : 12.0,
					"numoutlets" : 1
				}

			}
, 			{
				"box" : 				{
					"maxclass" : "message",
					"text" : "clear",
					"patching_rect" : [ 31.0, 92.0, 37.0, 18.0 ],
					"outlettype" : [ "" ],
					"id" : "obj-7",
					"fontname" : "Arial",
					"numinlets" : 2,
					"fontsize" : 12.0,
					"numoutlets" : 1
				}

			}
, 			{
				"box" : 				{
					"maxclass" : "comment",
					"text" : "by Nicolas d'Alessandro <nicolas@dalessandro.be>",
					"patching_rect" : [ 18.0, 50.0, 300.0, 22.0 ],
					"id" : "obj-5",
					"fontname" : "Helvetica Neue Light",
					"numinlets" : 1,
					"fontsize" : 13.0,
					"numoutlets" : 0
				}

			}
, 			{
				"box" : 				{
					"maxclass" : "comment",
					"text" : "vqc.lfp~ | Liljencrants-Fant (Left-CGI Part) Pulse Generator",
					"patching_rect" : [ 18.0, 35.0, 336.0, 22.0 ],
					"id" : "obj-4",
					"fontname" : "Helvetica Neue Light",
					"numinlets" : 1,
					"fontsize" : 13.0,
					"numoutlets" : 0
				}

			}
, 			{
				"box" : 				{
					"maxclass" : "comment",
					"text" : "Voice Quality Control Library",
					"patching_rect" : [ 11.0, 14.0, 204.0, 26.0 ],
					"id" : "obj-3",
					"fontname" : "Helvetica Neue Light",
					"numinlets" : 1,
					"fontsize" : 16.0,
					"numoutlets" : 0
				}

			}
, 			{
				"box" : 				{
					"maxclass" : "newobj",
					"text" : "vqc.lfp~",
					"patching_rect" : [ 31.0, 288.0, 180.0, 20.0 ],
					"color" : [ 0.533333, 0.74902, 0.533333, 1.0 ],
					"outlettype" : [ "signal" ],
					"id" : "obj-1",
					"fontname" : "Arial",
					"numinlets" : 5,
					"fontsize" : 12.0,
					"numoutlets" : 1
				}

			}
 ],
		"lines" : [ 			{
				"patchline" : 				{
					"source" : [ "obj-43", 0 ],
					"destination" : [ "obj-36", 0 ],
					"hidden" : 1,
					"midpoints" : [  ]
				}

			}
, 			{
				"patchline" : 				{
					"source" : [ "obj-1", 0 ],
					"destination" : [ "obj-41", 0 ],
					"hidden" : 0,
					"midpoints" : [  ]
				}

			}
, 			{
				"patchline" : 				{
					"source" : [ "obj-33", 0 ],
					"destination" : [ "obj-1", 4 ],
					"hidden" : 0,
					"midpoints" : [  ]
				}

			}
, 			{
				"patchline" : 				{
					"source" : [ "obj-34", 0 ],
					"destination" : [ "obj-1", 3 ],
					"hidden" : 0,
					"midpoints" : [  ]
				}

			}
, 			{
				"patchline" : 				{
					"source" : [ "obj-35", 0 ],
					"destination" : [ "obj-1", 2 ],
					"hidden" : 0,
					"midpoints" : [  ]
				}

			}
, 			{
				"patchline" : 				{
					"source" : [ "obj-36", 0 ],
					"destination" : [ "obj-1", 1 ],
					"hidden" : 0,
					"midpoints" : [  ]
				}

			}
, 			{
				"patchline" : 				{
					"source" : [ "obj-21", 0 ],
					"destination" : [ "obj-1", 0 ],
					"hidden" : 0,
					"midpoints" : [ 216.5, 234.5, 40.5, 234.5 ]
				}

			}
, 			{
				"patchline" : 				{
					"source" : [ "obj-20", 0 ],
					"destination" : [ "obj-15", 3 ],
					"hidden" : 0,
					"midpoints" : [  ]
				}

			}
, 			{
				"patchline" : 				{
					"source" : [ "obj-19", 0 ],
					"destination" : [ "obj-15", 2 ],
					"hidden" : 0,
					"midpoints" : [  ]
				}

			}
, 			{
				"patchline" : 				{
					"source" : [ "obj-18", 0 ],
					"destination" : [ "obj-15", 1 ],
					"hidden" : 0,
					"midpoints" : [  ]
				}

			}
, 			{
				"patchline" : 				{
					"source" : [ "obj-17", 0 ],
					"destination" : [ "obj-15", 0 ],
					"hidden" : 0,
					"midpoints" : [  ]
				}

			}
, 			{
				"patchline" : 				{
					"source" : [ "obj-10", 0 ],
					"destination" : [ "obj-1", 0 ],
					"hidden" : 0,
					"midpoints" : [ 56.5, 168.0, 40.5, 168.0 ]
				}

			}
, 			{
				"patchline" : 				{
					"source" : [ "obj-14", 0 ],
					"destination" : [ "obj-1", 0 ],
					"hidden" : 0,
					"midpoints" : [ 56.5, 222.5, 40.5, 222.5 ]
				}

			}
, 			{
				"patchline" : 				{
					"source" : [ "obj-7", 0 ],
					"destination" : [ "obj-1", 0 ],
					"hidden" : 0,
					"midpoints" : [  ]
				}

			}
, 			{
				"patchline" : 				{
					"source" : [ "obj-15", 0 ],
					"destination" : [ "obj-21", 0 ],
					"hidden" : 0,
					"midpoints" : [  ]
				}

			}
, 			{
				"patchline" : 				{
					"source" : [ "obj-13", 0 ],
					"destination" : [ "obj-14", 0 ],
					"hidden" : 0,
					"midpoints" : [  ]
				}

			}
, 			{
				"patchline" : 				{
					"source" : [ "obj-12", 0 ],
					"destination" : [ "obj-10", 0 ],
					"hidden" : 0,
					"midpoints" : [  ]
				}

			}
, 			{
				"patchline" : 				{
					"source" : [ "obj-9", 0 ],
					"destination" : [ "obj-2", 0 ],
					"hidden" : 0,
					"midpoints" : [  ]
				}

			}
, 			{
				"patchline" : 				{
					"source" : [ "obj-22", 0 ],
					"destination" : [ "obj-2", 0 ],
					"hidden" : 0,
					"midpoints" : [  ]
				}

			}
 ]
	}

}
